<svg xmlns="http://www.w3.org/2000/svg" viewBox="0 0 51.71 52.28"><defs><style>.cls-1{fill:#fff;}.cls-2{fill:#1d74f2;}</style></defs><title>Asset 3</title><g id="Layer_2" data-name="Layer 2"><g id="Layer_1-2" data-name="Layer 1"><rect class="cls-1" x="5.27" y="0.5" width="17.95" height="3.87"/><path class="cls-2" d="M23.21,4.88H5.27a.5.5,0,0,1-.5-.5V.5a.5.5,0,0,1,.5-.5H23.21a.5.5,0,0,1,.5.5V4.38A.5.5,0,0,1,23.21,4.88Zm-17.45-1H22.71V1H5.77Z"/><rect class="cls-1" x="24.8" y="18.31" width="17.95" height="3.87"/><path class="cls-2" d="M42.74,22.69H24.8a.5.5,0,0,1-.5-.5V18.31a.5.5,0,0,1,.5-.5H42.74a.5.5,0,0,1,.5.5v3.88A.5.5,0,0,1,42.74,22.69Zm-17.45-1H42.24V18.81H25.3Z"/><rect class="cls-1" x="24.96" y="20.87" width="21.54" height="30.02"/><path class="cls-2" d="M46.5,51.38H25a.5.5,0,0,1-.5-.5v-30a.5.5,0,0,1,.5-.5H46.5a.5.5,0,0,1,.5.5v30A.5.5,0,0,1,46.5,51.38Zm-21-1H46v-29H25.46Z"/><rect class="cls-2" x="28.73" y="23.76" width="2.81" height="2.81"/><rect class="cls-2" x="34.32" y="23.76" width="2.81" height="2.81"/><rect class="cls-2" x="39.92" y="23.76" width="2.81" height="2.81"/><rect class="cls-2" x="28.73" y="29.5" width="2.81" height="2.81"/><rect class="cls-2" x="34.32" y="29.5" width="2.81" height="2.81"/><rect class="cls-2" x="39.92" y="29.5" width="2.81" height="2.81"/><rect class="cls-2" x="28.73" y="35.24" width="2.81" height="2.81"/><rect class="cls-2" x="34.32" y="35.24" width="2.81" height="2.81"/><rect class="cls-2" x="39.92" y="35.24" width="2.81" height="2.81"/><rect class="cls-2" x="28.73" y="40.98" width="2.81" height="2.81"/><rect class="cls-2" x="34.32" y="40.98" width="2.81" height="5.88"/><rect class="cls-2" x="39.92" y="40.98" width="2.81" height="2.81"/><rect class="cls-1" x="3.47" y="3.09" width="21.54" height="47.8"/><path class="cls-2" d="M25,51.38H3.47a.5.5,0,0,1-.5-.5V3.08a.5.5,0,0,1,.5-.5H25a.5.5,0,0,1,.5.5v47.8A.5.5,0,0,1,25,51.38Zm-21-1H24.51V3.58H4Z"/><rect class="cls-1" x="0.5" y="46.96" width="50.71" height="4.82"/><path class="cls-2" d="M51.21,52.28H.5a.5.5,0,0,1-.5-.5V47a.5.5,0,0,1,.5-.5H51.21a.5.5,0,0,1,.5.5v4.82A.5.5,0,0,1,51.21,52.28ZM1,51.28H50.71V47.46H1Z"/><rect class="cls-2" x="7.17" y="12.28" width="2.81" height="2.81"/><rect class="cls-2" x="12.77" y="12.28" width="2.81" height="2.81"/><rect class="cls-2" x="18.37" y="12.28" width="2.81" height="2.81"/><rect class="cls-2" x="7.17" y="18.02" width="2.81" height="2.81"/><rect class="cls-2" x="12.77" y="18.02" width="2.81" height="2.81"/><rect class="cls-2" x="18.37" y="18.02" width="2.81" height="2.81"/><rect class="cls-2" x="7.17" y="6.55" width="2.81" height="2.81"/><rect class="cls-2" x="12.77" y="6.55" width="2.81" height="2.81"/><rect class="cls-2" x="18.37" y="6.55" width="2.81" height="2.81"/><rect class="cls-2" x="7.17" y="23.76" width="2.81" height="2.81"/><rect class="cls-2" x="12.77" y="23.76" width="2.81" height="2.81"/><rect class="cls-2" x="18.37" y="23.76" width="2.81" height="2.81"/><rect class="cls-2" x="7.17" y="29.5" width="2.81" height="2.81"/><rect class="cls-2" x="12.77" y="29.5" width="2.81" height="2.81"/><rect class="cls-2" x="18.37" y="29.5" width="2.81" height="2.81"/><rect class="cls-2" x="7.17" y="35.24" width="2.81" height="2.81"/><rect class="cls-2" x="12.77" y="35.24" width="2.81" height="2.81"/><rect class="cls-2" x="18.37" y="35.24" width="2.81" height="2.81"/><rect class="cls-2" x="7.17" y="40.98" width="2.81" height="2.81"/><rect class="cls-2" x="12.77" y="40.98" width="2.81" height="2.81"/><rect class="cls-2" x="18.37" y="40.98" width="2.81" height="2.81"/></g></g></svg>
