<svg xmlns="http://www.w3.org/2000/svg" xmlns:xlink="http://www.w3.org/1999/xlink" version="1.1" x="0px" y="0px" viewBox="0 0 100 100" style="enable-background:new 0 0 100 100;" xml:space="preserve"><g><path fill="#1D74F2" d="M9.4,70.6c-1.9,0-3.5,1.6-3.5,3.5v5.3c0,6,4.9,10.8,10.9,10.8h66.5c6,0,10.9-4.9,10.9-10.8v-5.3c0-1.9-1.6-3.5-3.5-3.5   s-3.5,1.6-3.5,3.5v5.3c0,2.1-1.8,3.8-3.9,3.8H16.8c-2.2,0-3.9-1.7-3.9-3.8v-5.3C12.9,72.2,11.3,70.6,9.4,70.6z"/><path d="M49.1,9.8c-1.9,0-3.5,1.6-3.5,3.5v46.6L33.3,49.3c-1.5-1.3-3.7-1.1-4.9,0.4c-1.3,1.5-1.1,3.7,0.4,4.9l18.2,15.6   c0.1,0,0.1,0.1,0.2,0.1c0.1,0.1,0.2,0.1,0.2,0.2c0.1,0.1,0.2,0.1,0.3,0.2c0.1,0,0.2,0.1,0.3,0.1c0.1,0,0.3,0.1,0.4,0.1   c0.1,0,0.2,0,0.2,0.1c0.2,0,0.4,0.1,0.7,0.1s0.4,0,0.7-0.1c0.1,0,0.2,0,0.2-0.1c0.1,0,0.3-0.1,0.4-0.1c0.1,0,0.2-0.1,0.3-0.1   c0.1-0.1,0.2-0.1,0.3-0.2c0.1-0.1,0.2-0.1,0.2-0.2c0.1,0,0.1-0.1,0.2-0.1l18.2-15.6c1.5-1.3,1.6-3.5,0.4-4.9   c-1.3-1.5-3.5-1.6-4.9-0.4L52.6,59.9V13.2C52.6,11.3,51.1,9.8,49.1,9.8z"/></g><text x="0" y="115" fill="#000000" font-size="5px" font-weight="bold" font-family="'Helvetica Neue', Helvetica, Arial-Unicode, Arial, Sans-serif">Created by Genius Icons</text><text x="0" y="120" fill="#000000" font-size="5px" font-weight="bold" font-family="'Helvetica Neue', Helvetica, Arial-Unicode, Arial, Sans-serif">from the Noun Project</text></svg>
