<svg xmlns="http://www.w3.org/2000/svg" viewBox="0 0 30.75 39.1"><defs><style>.cls-1{fill:#1d74f2;}</style></defs><title>Asset 5</title><g id="Layer_2" data-name="Layer 2"><g id="Layer_1-2" data-name="Layer 1"><path class="cls-1" d="M5.26,6.76H1.91a.5.5,0,0,1-.5-.5V.5a.5.5,0,0,1,.5-.5H5.26a.5.5,0,0,1,.5.5V6.26A.5.5,0,0,1,5.26,6.76Zm-2.85-1H4.76V1H2.41Z"/><path class="cls-1" d="M11.4,6.76H8.05a.5.5,0,0,1-.5-.5V.5a.5.5,0,0,1,.5-.5H11.4a.5.5,0,0,1,.5.5V6.26A.5.5,0,0,1,11.4,6.76Zm-2.85-1H10.9V1H8.55Z"/><path class="cls-1" d="M13.67,39.1H10a.5.5,0,0,1-.5-.5V31.28L4.53,26.39A.5.5,0,0,1,4.38,26V17.29a.5.5,0,0,1,.5-.5H8.59a.5.5,0,0,1,.5.5v6.94l5,5a.5.5,0,0,1,.15.36l0,9A.5.5,0,0,1,13.67,39.1Zm-3.21-1h2.71l0-8.34-5-5a.5.5,0,0,1-.15-.35V17.79H5.38v8l4.94,4.89a.5.5,0,0,1,.15.36Z"/><path class="cls-1" d="M9.06,17.7H4.44A.5.5,0,0,1,4,17.49L.09,11.93A.5.5,0,0,1,0,11.65V6.28a.5.5,0,0,1,.5-.5H13a.5.5,0,0,1,.5.5v5.37a.5.5,0,0,1-.09.29L9.47,17.49A.5.5,0,0,1,9.06,17.7Zm-4.36-1H8.8l3.7-5.22V6.78H1v4.71Z"/><path class="cls-1" d="M19.94,37.72a.5.5,0,0,1-.49-.58l2.17-12.87H13a.5.5,0,0,1-.43-.75L22.43,6.4a.5.5,0,0,1,.93.32L21.54,19.38h8.71a.5.5,0,0,1,.43.76L20.37,37.47A.5.5,0,0,1,19.94,37.72ZM13.85,23.26H22.2a.5.5,0,0,1,.49.58L20.87,34.66l8.5-14.28H21a.5.5,0,0,1-.5-.57L22,9.15Z"/></g></g></svg>