<svg xmlns="http://www.w3.org/2000/svg" viewBox="0 0 100 100"><path fill="#1D74F2" d="M69.904 91.63l-1.32-6.224v.106l-9.315-43.807h2.484c1.637 0 2.963-1.363 2.963-3s-1.327-3-2.963-3h-3.742l-1.505-7.45c-.166-.782-.904-1.55-1.684-1.55h-9.647c-.78 0-1.517.768-1.684 1.55l-1.505 7.45h-3.703c-1.637 0-2.963 1.363-2.963 3s1.328 3 2.964 3h2.446L30.096 91.74c-.175.828.353 1.584 1.18 1.76.106.022.213.005.318.005.707 0 1.342-.507 1.495-1.227l1.327-6.27 15.413-5.604 15.93 6.432 1.15 5.428c.153.72.788 1.212 1.495 1.212.105 0 .212-.01.32-.034.826-.174 1.354-.986 1.18-1.813zm-9.907-31.967l2.23 10.513-9.28-5.973 7.05-4.54zm-3.005-1.958L50.12 62.13l-6.876-4.425h13.748zm-13.63-2l6.496-5.65 6.846 5.65H43.36zm6.758 10.788l8.096 5.21h-16.19l8.094-5.21zm6.557-22.484l1.95 9.197-6.428-5.305 4.477-3.893zM51.43 29.704h2.323l1.13 6H51.43v-6zm-5.183 0h2.182v6h-3.315l1.132-6zm8.673 12l-5.114 4.447-5.39-4.447H54.92zm-11.694 2.76l4.24 3.5-6.108 5.31 1.868-8.81zM40.032 59.53l7.26 4.673-9.557 6.154 2.297-10.828zm-4.866 22.944l1.562-7.365 8.86 3.578-10.422 3.786zm6.007-8.77h18.404l-9.688 3.52-8.717-3.52zM54.13 78.84l9.222-3.35 1.64 7.737-10.86-4.387zM52.646 18c0-1.424-1.155-2.58-2.58-2.58s-2.58 1.156-2.58 2.58 2.58 6.022 2.58 6.022 2.58-4.596 2.58-6.02zM58.278 10.592c.727-.952.544-2.312-.408-3.04-.952-.725-2.312-.543-3.04.41-.726.95-1.345 5.336-1.345 5.336s4.067-1.754 4.793-2.706zM67.02 8.204c-.008-.956-.79-1.723-1.746-1.714-.956.01-4.022 1.77-4.022 1.77s3.1 1.7 4.054 1.692c.956-.01 1.724-.793 1.715-1.748zM46.656 13.298s-.62-4.385-1.346-5.337-2.087-1.133-3.04-.407c-.95.727-1.133 2.087-.407 3.04.727.95 4.793 2.705 4.793 2.705zM34.836 9.95c.956.01 4.054-1.693 4.054-1.693s-3.066-1.76-4.022-1.77-1.738.76-1.747 1.715c-.008.957.76 1.74 1.716 1.748z"/><text y="115" font-size="5" font-weight="bold" font-family="'Helvetica Neue', Helvetica, Arial-Unicode, Arial, Sans-serif">Created by Joana Pereira</text><text y="120" font-size="5" font-weight="bold" font-family="'Helvetica Neue', Helvetica, Arial-Unicode, Arial, Sans-serif">from the Noun Project</text></svg>
