<svg xmlns="http://www.w3.org/2000/svg" viewBox="0 0 59.79 60.37"><defs><style>.cls-1{fill:#fff;}.cls-2{fill:#1d74f2;}</style></defs><title>Asset 1</title><g id="Layer_2" data-name="Layer 2"><g id="Layer_1-2" data-name="Layer 1"><polygon class="cls-1" points="38 29.83 38 23.36 17.14 30.83 17.14 56.83 34.52 56.83 38 56.83 56.09 56.83 56.09 23.36 38 29.83"/><path class="cls-2" d="M56.09,57.33h-39a.5.5,0,0,1-.5-.5v-26a.5.5,0,0,1,.33-.47l20.87-7.47a.51.51,0,0,1,.46.06.5.5,0,0,1,.21.41v5.77l17.42-6.24a.51.51,0,0,1,.46.06.5.5,0,0,1,.21.41V56.83A.5.5,0,0,1,56.09,57.33Zm-38.45-1h38V24.07L38.17,30.3a.5.5,0,0,1-.67-.47V24.07L17.64,31.18Z"/><path class="cls-2" d="M13.45,15.86a.5.5,0,0,1-.5-.5V12a2.38,2.38,0,0,0-2.38-2.38H6.18A3.38,3.38,0,0,1,2.8,6.23a.5.5,0,0,1,1,0A2.38,2.38,0,0,0,6.18,8.61h4.39A3.38,3.38,0,0,1,14,12v3.36A.5.5,0,0,1,13.45,15.86Z"/><path class="cls-2" d="M11.71,15.86a.5.5,0,0,1-.5-.5v-2A2.73,2.73,0,0,0,11,12c-.23-.33-.79-.5-1.72-.5H3.89a.5.5,0,0,1,0-1h5.4a2.85,2.85,0,0,1,2.54.92,3.37,3.37,0,0,1,.39,2v2A.5.5,0,0,1,11.71,15.86Z"/><path class="cls-2" d="M3.3,6.76a.5.5,0,0,1-.5-.5A3.38,3.38,0,0,1,6.18,2.88H7.9A2.38,2.38,0,0,0,10.28.5a.5.5,0,0,1,1,0A3.38,3.38,0,0,1,7.9,3.88H6.18A2.38,2.38,0,0,0,3.8,6.26.5.5,0,0,1,3.3,6.76Z"/><path class="cls-2" d="M9.93,6.82H6a.5.5,0,0,1,0-1H9.93a.5.5,0,0,1,0,1Z"/><path class="cls-2" d="M14.46,6.82H11.59a.5.5,0,0,1,0-1h2.88a.5.5,0,0,1,0,1Z"/><path class="cls-2" d="M2.37,11.47H.5a.5.5,0,0,1,0-1H2.37a.5.5,0,0,1,0,1Z"/><rect class="cls-1" x="6.43" y="16.86" width="12.23" height="41.3"/><path class="cls-2" d="M18.66,58.67H6.43a.5.5,0,0,1-.5-.5V16.86a.5.5,0,0,1,.5-.5H18.66a.5.5,0,0,1,.5.5v41.3A.5.5,0,0,1,18.66,58.67Zm-11.73-1H18.16V17.36H6.93Z"/><line class="cls-1" x1="6.43" y1="20.09" x2="18.44" y2="20.09"/><path class="cls-2" d="M18.44,20.59h-12a.5.5,0,0,1,0-1h12a.5.5,0,0,1,0,1Z"/><line class="cls-1" x1="6.43" y1="23.53" x2="18.44" y2="23.53"/><path class="cls-2" d="M18.44,24h-12a.5.5,0,0,1,0-1h12a.5.5,0,0,1,0,1Z"/><rect class="cls-1" x="3.45" y="54.72" width="55.84" height="5.15"/><path class="cls-2" d="M59.29,60.37H3.45a.5.5,0,0,1-.5-.5V54.72a.5.5,0,0,1,.5-.5H59.29a.5.5,0,0,1,.5.5v5.15A.5.5,0,0,1,59.29,60.37Zm-55.34-1H58.79V55.22H3.95Z"/><path class="cls-2" d="M24.69,45.5a.5.5,0,0,1-.5-.5V33.53a.5.5,0,0,1,1,0V45A.5.5,0,0,1,24.69,45.5Z"/><path class="cls-2" d="M35,45.5a.5.5,0,0,1-.5-.5V35.09a.5.5,0,0,1,1,0V45A.5.5,0,0,1,35,45.5Z"/><path class="cls-2" d="M29.85,51.5a.5.5,0,0,1-.5-.5V35.88a.5.5,0,0,1,1,0V51A.5.5,0,0,1,29.85,51.5Z"/><path class="cls-2" d="M40.18,51.5a.5.5,0,0,1-.5-.5V33.79a.5.5,0,0,1,1,0V51A.5.5,0,0,1,40.18,51.5Z"/><path class="cls-2" d="M45.35,51.5a.5.5,0,0,1-.5-.5V32.22a.5.5,0,1,1,1,0V51A.5.5,0,0,1,45.35,51.5Z"/><path class="cls-2" d="M50.51,51.5A.5.5,0,0,1,50,51V30.65a.5.5,0,1,1,1,0V51A.5.5,0,0,1,50.51,51.5Z"/><path class="cls-2" d="M51.29,37.94h-30a.5.5,0,0,1,0-1h30a.5.5,0,0,1,0,1Z"/><path class="cls-2" d="M51.29,43.42h-30a.5.5,0,0,1,0-1h30a.5.5,0,0,1,0,1Z"/><path class="cls-2" d="M51.29,48.9H37.47a.5.5,0,1,1,0-1H51.29a.5.5,0,0,1,0,1Z"/></g></g></svg>