<svg xmlns="http://www.w3.org/2000/svg" viewBox="0 0 484.13 239.63"><defs><style>.cls-1{fill:#004990;}.cls-2{fill:#c8e2ae;}</style></defs><title>mapc-logo</title><g id="Layer_2" data-name="Layer 2"><g id="Logo"><g id="State"><polyline class="cls-1" points="269.75 143.38 268.63 133.63 259.13 124.25 258.5 115 254.63 113.75 254.5 104.25 258.88 101.13 250.63 90.25 252.75 83.13 245.25 78.38 247 67.38 253.63 70.75 259.63 70.38 258.25 66.38 261.63 63.5 260.88 55.75 268 50.38 273.75 59.25 278.75 59.25 282.38 54.63 288.75 54.38 293.5 59.25 302.25 60.5 302.25 53.5 306.63 49.88 310.13 44.88 314.5 46.75 320.88 46.75 328.75 40.75 335.38 43 336 34.25 353.88 25.63 355.88 29.63 358.38 28.5 360.38 32.5 366.71 34.79 364.13 38.13 373.79 36.63 377.21 31.29 382.38 31.29 382.38 35.38 387.29 33.79 387.29 38.79 382.46 41.79 380.88 48.13 376.88 49.38 376.71 45.04 371.54 50.63 351.38 56.88 357.63 63.38 351.54 66.38 350.04 69.79 344.88 69.71 344.13 72.46 346.54 76.71 340.88 76.79 339.38 72.21 336.79 77.88 340.13 87.04 333.71 89.46 329.79 94.79 335.46 95.38 333.04 98.13 336.54 101.04 338.79 98.88 340.79 102.79 347.54 102.29 345.96 98.29 340.71 95.96 347.71 93.71 352.13 98.71 364.21 103.88 372.13 111.46 383.46 131.71 389.96 141.63 380.9 145.89 385.38 140.71 381.46 137.96 378.63 143 357.75 139.5 355.13 129.88 351.13 131.5 343.63 121.13 338.75 121.13 332.5 124.25 328.5 120.5 325.13 123.13 327.5 128.13 298.38 141.88 294.13 138.5"/><polygon class="cls-2" points="26.25 29.75 0 144.38 283.88 144.38 285.25 144.38 285.25 161.88 293.5 161.88 294.13 175.63 321.63 209.5 324.88 223.25 334.75 230 349.38 219.38 344.25 213.5 352.75 205.5 366.13 203.75 384.13 183.63 390.75 191.38 387.88 200 386.75 214.63 383.88 222.13 390.75 218.25 411.5 216.63 414.38 207.13 420.75 202.25 418.88 207 425.25 206.5 427.88 201.88 474.25 195.63 477.13 198.25 474 213.25 479.13 212.25 481.75 191.75 476.25 186.38 480.38 179.13 484.13 188.88 482.63 166.75 474.63 146.63 461.63 130.75 444.75 126.38 440.38 129.88 446.25 137.63 447.13 131 462.13 139.13 463.38 157.5 468.38 150.38 472.88 159.25 472.13 174.63 445.13 182.75 439.25 187 429.38 188.25 433.88 184.25 420.38 184.63 401.75 174.63 399 153.75 384.63 150.63 378.63 143 357.75 139.5 355.13 129.88 351.13 131.5 343.63 121.13 338.75 121.13 332.5 124.25 328.5 120.5 325.13 123.13 327.5 128.13 298.38 141.88 294.13 138.5 269.75 143.38 268.63 133.63 259.13 124.25 258.5 115 254.63 113.75 254.5 104.25 258.88 101.13 250.63 90.25 252.75 83.13 245.25 78.38 247 67.38 253.63 70.75 259.63 70.38 258.25 66.38 261.63 63.5 260.88 55.75 268 50.38 273.75 59.25 278.75 59.25 282.38 54.63 288.75 54.38 293.5 59.25 302.25 60.5 302.25 53.5 306.63 49.88 310.13 44.88 314.5 46.75 320.88 46.75 328.75 40.75 335.38 43 336 34.25 353.88 25.63 355.88 29.63 358.38 28.5 360.38 32.5 363.63 33.38 365.13 31.88 357 13 353.75 14.63 353 10.63 357.25 8.75 356.13 3.5 352.63 3.5 347.13 0 327.75 6 323.75 13 317 12.13 308.25 15.75 307.13 25.5 303 22.5 293.5 29.75 26.25 29.75"/></g><g id="Letters"><polygon class="cls-1" points="0.88 150.96 0.88 237.79 15.71 237.79 15.71 176.29 43.04 216.63 70.71 175.96 70.71 237.79 86.21 237.79 86.21 150.96 70.04 150.96 43.54 191.96 16.88 150.96 0.88 150.96"/><path class="cls-1" d="M141.21,150.13h14l38.33,87.67H177.38l-8.67-21H127.54l-9,21H103Zm-8,53.17H163l-14.92-34.5Z"/><path class="cls-1" d="M243.79,151s31.58-2.21,33.58,27.67-32.12,31.5-32.12,31.5l-20-.17v27.83h-15V151Zm-18.42,14v31.17h19.88s16-.08,16.46-15.58S245.25,165,245.25,165Z"/><path class="cls-1" d="M369.88,163.13l-9.75,11.25s-12.25-11.25-23.5-10.87c0,0-29.08-.58-29.58,30.86s28.83,31.1,28.83,31.1,9.5-.08,15.5-4.21a63,63,0,0,0,9-7.25l10.13,10s-12.79,15.79-34.29,15.63S291,225.09,291,194.36s23.67-44.9,45-44.9A48.43,48.43,0,0,1,369.88,163.13Z"/></g></g></g></svg>