<svg xmlns="http://www.w3.org/2000/svg" viewBox="0 0 23.59 33.35"><defs><style>.cls-1{fill:#1d74f2;}</style></defs><title>Asset 6</title><g id="Layer_2" data-name="Layer 2"><g id="Layer_1-2" data-name="Layer 1"><path class="cls-1" d="M15.31,33.35A.5.5,0,0,1,15,32.5s4-4.16,3.7-9.62c-.16-3.3-1.81-6.43-4.9-9.32.09,2.21-.13,6.85-3,10.18a.5.5,0,0,1-.87-.29,7.47,7.47,0,0,0-1.74-4.13A26.26,26.26,0,0,1,6.33,24C4.51,27.9,5.82,29.4,7.8,31.68l.62.71a.5.5,0,0,1-.5.81c-.24-.06-6-1.47-7.37-6.28-1.33-4.53-.22-9.44,3.3-14.58,3.37-4.92,5-8.9,4.9-11.83A.5.5,0,0,1,9,.05a.5.5,0,0,1,.54.07C10,.49,20.35,9.33,22.66,16.79c1.47,4.76,1.18,9.29-.79,12.44a9,9,0,0,1-6.48,4.11ZM13.15,11.86a.5.5,0,0,1,.32.12c3.91,3.3,6,7,6.18,10.86a14.62,14.62,0,0,1-3,9.2A7.66,7.66,0,0,0,21,28.7c1.82-2.9,2.07-7.13.69-11.61-1.86-6-9.49-13.25-12-15.5-.25,3-1.94,6.8-5,11.33C1.33,17.79.26,22.41,1.51,26.64c.79,2.69,3.22,4.21,4.91,5-1.69-2-2.86-4-1-8a20.88,20.88,0,0,0,1.84-5.25A.5.5,0,0,1,8,18a6.77,6.77,0,0,1,2.59,4.2c2.79-4.08,2-9.71,2-9.77a.5.5,0,0,1,.25-.51A.49.49,0,0,1,13.15,11.86Z"/></g></g></svg>