<svg xmlns="http://www.w3.org/2000/svg" viewBox="0 0 51.7 41"><defs><style>.cls-1{fill:#fff;}.cls-2{fill:#1d74f2;}</style></defs><title>Asset 2</title><g id="Layer_2" data-name="Layer 2"><g id="Layer_1-2" data-name="Layer 1"><polygon class="cls-1" points="45.97 19.09 45.97 11.89 42.31 11.89 42.31 16.36 36.65 12.13 25.11 20.61 25.11 39.99 48.01 39.99 48.01 20.61 45.97 19.09"/><path class="cls-2" d="M48,40.49H25.11a.5.5,0,0,1-.5-.5V20.61a.5.5,0,0,1,.2-.4l11.54-8.48a.5.5,0,0,1,.59,0l4.87,3.63V11.89a.5.5,0,0,1,.5-.5H46a.5.5,0,0,1,.5.5v7l1.83,1.37a.5.5,0,0,1,.2.4V40A.5.5,0,0,1,48,40.49Zm-22.4-1h21.9V20.86L45.67,19.5a.5.5,0,0,1-.2-.4V12.39H42.81v4a.5.5,0,0,1-.8.4l-5.37-4-11,8.11Z"/><polygon class="cls-1" points="48.01 39.54 25.11 39.54 25.11 24.87 36.65 16.39 48.01 24.87 48.01 39.54"/><path class="cls-2" d="M48,40H25.11a.5.5,0,0,1-.5-.5V24.87a.5.5,0,0,1,.2-.4L36.35,16a.5.5,0,0,1,.59,0l11.36,8.48a.5.5,0,0,1,.2.4V39.54A.5.5,0,0,1,48,40Zm-22.4-1h21.9V25.13L36.64,17l-11,8.11Z"/><rect class="cls-2" x="32.56" y="23.8" width="2.81" height="2.81"/><rect class="cls-2" x="38.15" y="23.8" width="2.81" height="2.81"/><rect class="cls-2" x="32.56" y="30.08" width="2.81" height="6.1"/><rect class="cls-2" x="38.15" y="30.08" width="2.81" height="6.1"/><polygon class="cls-1" points="23.69 7.7 23.69 0.5 20.03 0.5 20.03 4.97 14.36 0.74 2.82 9.22 2.82 28.6 25.72 28.6 25.72 9.22 23.69 7.7"/><path class="cls-2" d="M25.72,29.1H2.82a.5.5,0,0,1-.5-.5V9.22a.5.5,0,0,1,.2-.4L14.06.34a.5.5,0,0,1,.59,0L19.53,4V.5A.5.5,0,0,1,20,0h3.66a.5.5,0,0,1,.5.5v7L26,8.82a.5.5,0,0,1,.2.4V28.6A.5.5,0,0,1,25.72,29.1Zm-22.4-1h21.9V9.47L23.39,8.1a.5.5,0,0,1-.2-.4V1H20.53V5a.5.5,0,0,1-.8.4l-5.37-4-11,8.11Z"/><polygon class="cls-1" points="25.72 36.05 2.82 36.05 2.82 13.48 14.36 5 25.72 13.48 25.72 36.05"/><path class="cls-2" d="M25.72,36.55H2.82a.5.5,0,0,1-.5-.5V13.48a.5.5,0,0,1,.2-.4L14.06,4.6a.5.5,0,0,1,.59,0L26,13.08a.5.5,0,0,1,.2.4V36A.5.5,0,0,1,25.72,36.55Zm-22.4-1h21.9V13.74L14.36,5.63l-11,8.11Z"/><rect class="cls-2" x="7.15" y="14.05" width="2.81" height="2.81"/><rect class="cls-2" x="12.98" y="14.05" width="2.81" height="2.81"/><rect class="cls-2" x="12.98" y="8.75" width="2.81" height="2.81"/><rect class="cls-2" x="18.83" y="14.05" width="2.81" height="2.81"/><rect class="cls-2" x="7.15" y="19.32" width="2.81" height="2.81"/><rect class="cls-2" x="12.98" y="19.32" width="2.81" height="2.81"/><rect class="cls-2" x="18.83" y="19.32" width="2.81" height="2.81"/><rect class="cls-2" x="7.15" y="24.58" width="2.81" height="2.81"/><rect class="cls-2" x="12.98" y="24.58" width="2.81" height="2.81"/><rect class="cls-2" x="18.83" y="24.58" width="2.81" height="2.81"/><rect class="cls-2" x="7.15" y="30.32" width="2.81" height="6.1"/><rect class="cls-2" x="12.98" y="30.32" width="2.81" height="6.1"/><rect class="cls-2" x="18.83" y="30.32" width="2.81" height="6.1"/><rect class="cls-1" x="0.5" y="35.68" width="50.71" height="4.82"/><path class="cls-2" d="M51.21,41H.5a.5.5,0,0,1-.5-.5V35.68a.5.5,0,0,1,.5-.5H51.21a.5.5,0,0,1,.5.5V40.5A.5.5,0,0,1,51.21,41ZM1,40H50.71V36.18H1Z"/></g></g></svg>