<svg xmlns="http://www.w3.org/2000/svg" viewBox="0 0 57.46 50.54"><defs><style>.cls-1{fill:#1d74f2;}.cls-2{fill:#fff;}</style></defs><title>Asset 4</title><g id="Layer_2" data-name="Layer 2"><g id="Layer_1-2" data-name="Layer 1"><path class="cls-1" d="M10.91,13.63a.5.5,0,0,1-.5-.5V10.43A1.82,1.82,0,0,0,8.6,8.61H5.07A2.82,2.82,0,0,1,2.25,5.8a.5.5,0,1,1,1,0A1.82,1.82,0,0,0,5.07,7.61H8.6a2.82,2.82,0,0,1,2.82,2.82v2.71A.5.5,0,0,1,10.91,13.63Z"/><path class="cls-1" d="M9.52,13.63a.5.5,0,0,1-.5-.5V11.55a2.16,2.16,0,0,0-.16-1.1c-.16-.24-.6-.36-1.3-.36H3.22a.5.5,0,1,1,0-1H7.56a2.38,2.38,0,0,1,2.12.79A2.82,2.82,0,0,1,10,11.54v1.59A.5.5,0,0,1,9.52,13.63Z"/><path class="cls-1" d="M2.75,6.32a.5.5,0,0,1-.5-.5A2.82,2.82,0,0,1,5.07,3H6.45A1.82,1.82,0,0,0,8.27,1.19a.5.5,0,0,1,1,0A2.82,2.82,0,0,1,6.45,4H5.07A1.82,1.82,0,0,0,3.25,5.82.5.5,0,0,1,2.75,6.32Z"/><path class="cls-1" d="M8.08,6.36H5a.5.5,0,0,1,0-1H8.08a.5.5,0,0,1,0,1Z"/><path class="cls-1" d="M11.73,6.36H9.41a.5.5,0,0,1,0-1h2.31a.5.5,0,0,1,0,1Z"/><path class="cls-1" d="M2,10.11H.5a.5.5,0,0,1,0-1H2a.5.5,0,0,1,0,1Z"/><rect class="cls-2" x="5.27" y="14.34" width="9.83" height="35.62"/><path class="cls-1" d="M15.1,50.47H5.27a.5.5,0,0,1-.5-.5V14.34a.5.5,0,0,1,.5-.5H15.1a.5.5,0,0,1,.5.5V50A.5.5,0,0,1,15.1,50.47Zm-9.33-1H14.6V14.84H5.77Z"/><line class="cls-2" x1="5.27" y1="16.94" x2="14.93" y2="16.94"/><path class="cls-1" d="M14.93,17.44H5.27a.5.5,0,1,1,0-1h9.66a.5.5,0,0,1,0,1Z"/><line class="cls-2" x1="5.27" y1="19.71" x2="14.93" y2="19.71"/><path class="cls-1" d="M14.93,20.21H5.27a.5.5,0,1,1,0-1h9.66a.5.5,0,1,1,0,1Z"/><polygon class="cls-2" points="52.94 28.84 52.94 21.87 49.41 21.87 49.41 26.2 43.93 22.11 32.78 30.3 32.78 49.53 54.91 49.53 54.91 30.3 52.94 28.84"/><path class="cls-1" d="M54.91,50H32.78a.5.5,0,0,1-.5-.5V30.31a.5.5,0,0,1,.2-.4l11.15-8.2a.5.5,0,0,1,.59,0l4.68,3.49V21.87a.5.5,0,0,1,.5-.5h3.53a.5.5,0,0,1,.5.5v6.71l1.77,1.32a.5.5,0,0,1,.2.4V49.53A.5.5,0,0,1,54.91,50ZM33.28,49H54.41V30.56l-1.77-1.32a.5.5,0,0,1-.2-.4V22.37H49.91V26.2a.5.5,0,0,1-.8.4l-5.18-3.87L33.28,30.56Z"/><polygon class="cls-2" points="54.91 49.1 32.78 49.1 32.78 34.93 43.93 26.73 54.91 34.93 54.91 49.1"/><path class="cls-1" d="M54.91,49.6H32.78a.5.5,0,0,1-.5-.5V34.93a.5.5,0,0,1,.2-.4l11.15-8.2a.5.5,0,0,1,.59,0l11,8.2a.5.5,0,0,1,.2.4V49.1A.5.5,0,0,1,54.91,49.6Zm-21.63-1H54.41V35.18L43.93,27.35,33.28,35.18Z"/><rect class="cls-1" x="39.98" y="33.89" width="2.71" height="2.71"/><rect class="cls-1" x="45.38" y="33.89" width="2.71" height="2.71"/><rect class="cls-1" x="39.98" y="39.43" width="2.71" height="5.89"/><rect class="cls-1" x="45.38" y="39.43" width="2.71" height="5.89"/><rect class="cls-2" x="16.33" y="0.5" width="17.34" height="3.74"/><path class="cls-1" d="M33.67,4.74H16.33a.5.5,0,0,1-.5-.5V.5a.5.5,0,0,1,.5-.5H33.67a.5.5,0,0,1,.5.5V4.24A.5.5,0,0,1,33.67,4.74Zm-16.84-1H33.17V1H16.83Z"/><rect class="cls-2" x="14.59" y="3" width="20.82" height="46.2"/><path class="cls-1" d="M35.41,49.69H14.59a.5.5,0,0,1-.5-.5V3a.5.5,0,0,1,.5-.5H35.41a.5.5,0,0,1,.5.5v46.2A.5.5,0,0,1,35.41,49.69Zm-20.32-1H34.91V3.5H15.09Z"/><rect class="cls-1" x="18.17" y="11.89" width="2.71" height="2.71"/><rect class="cls-1" x="23.58" y="11.89" width="2.71" height="2.71"/><rect class="cls-1" x="28.99" y="11.89" width="2.71" height="2.71"/><rect class="cls-1" x="18.17" y="17.44" width="2.71" height="2.71"/><rect class="cls-1" x="23.58" y="17.44" width="2.71" height="2.71"/><rect class="cls-1" x="28.99" y="17.44" width="2.71" height="2.71"/><rect class="cls-1" x="18.17" y="6.35" width="2.71" height="2.71"/><rect class="cls-1" x="23.58" y="6.35" width="2.71" height="2.71"/><rect class="cls-1" x="28.99" y="6.35" width="2.71" height="2.71"/><rect class="cls-1" x="18.17" y="22.98" width="2.71" height="2.71"/><rect class="cls-1" x="23.58" y="22.98" width="2.71" height="2.71"/><rect class="cls-1" x="28.99" y="22.98" width="2.71" height="2.71"/><rect class="cls-1" x="18.17" y="28.53" width="2.71" height="2.71"/><rect class="cls-1" x="23.58" y="28.53" width="2.71" height="2.71"/><rect class="cls-1" x="28.99" y="28.53" width="2.71" height="2.71"/><rect class="cls-1" x="18.17" y="34.08" width="2.71" height="2.71"/><rect class="cls-1" x="23.58" y="34.08" width="2.71" height="2.71"/><rect class="cls-1" x="28.99" y="34.08" width="2.71" height="2.71"/><rect class="cls-1" x="18.17" y="39.63" width="2.71" height="2.71"/><rect class="cls-1" x="23.58" y="39.63" width="2.71" height="2.71"/><rect class="cls-1" x="28.99" y="39.63" width="2.71" height="2.71"/><rect class="cls-2" x="3.3" y="45.22" width="53.65" height="4.82"/><path class="cls-1" d="M57,50.54H3.3a.5.5,0,0,1-.5-.5V45.22a.5.5,0,0,1,.5-.5H57a.5.5,0,0,1,.5.5V50A.5.5,0,0,1,57,50.54Zm-53.15-1H56.46V45.72H3.8Z"/></g></g></svg>
